<?xml version="1.0" standalone="no"?>
<!DOCTYPE svg PUBLIC "-//W3C//DTD SVG 20010904//EN"
 "http://www.w3.org/TR/2001/REC-SVG-20010904/DTD/svg10.dtd">
<svg version="1.0" xmlns="http://www.w3.org/2000/svg"
 width="195.000000pt" height="148.000000pt" viewBox="0 0 195.000000 148.000000"
 preserveAspectRatio="xMidYMid meet">

<g transform="translate(0.000000,148.000000) scale(0.100000,-0.100000)"
fill="#000000" stroke="none">
<path d="M590 1455 c-52 -14 -139 -41 -193 -61 -94 -36 -98 -38 -133 -93 -55
-87 -151 -287 -179 -376 -60 -185 -93 -442 -78 -600 l8 -80 70 -47 c85 -57
244 -137 342 -172 l72 -25 24 32 c28 37 77 121 77 130 0 4 -34 23 -75 42 -41
20 -75 39 -75 44 0 5 7 14 15 21 11 9 27 6 80 -14 267 -107 593 -107 860 0 53
20 69 23 80 14 8 -7 15 -16 15 -20 0 -4 -34 -24 -75 -44 -41 -20 -75 -40 -75
-44 0 -7 37 -69 88 -150 17 -26 283 90 427 186 l70 47 8 80 c9 97 -7 305 -33
430 -36 174 -107 350 -209 518 l-50 84 -80 31 c-44 17 -122 42 -173 56 -161
42 -144 44 -175 -18 -25 -52 -28 -54 -57 -48 -17 4 -103 7 -191 7 -88 0 -174
-3 -191 -7 -29 -6 -32 -4 -57 48 -15 30 -30 54 -34 54 -5 -1 -51 -12 -103 -25z
m145 -618 c29 -16 48 -37 68 -76 42 -85 32 -163 -29 -231 -111 -123 -294 -39
-294 134 0 63 12 101 43 135 59 65 139 79 212 38z m633 9 c36 -19 78 -65 91
-99 6 -16 11 -53 11 -83 0 -173 -183 -257 -294 -134 -40 44 -60 107 -53 163 7
53 55 126 97 148 41 22 110 25 148 5z"/>
</g>
</svg>
